<?xml version="1.0" standalone="no"?>
<svg xmlns="http://www.w3.org/2000/svg" viewBox="0 0 184 68" width="184" height="68"><g fill="#C30000" color="#C30000" transform="translate(74.277 0) scale(0.35) "><svg width="100.0" height="100.0" x="0.0" y="0.0" viewBox="0 0 100 100"><path style="" d="M99.975,59.486c0,1.768-1.429,3.198-3.196,3.198H58.779c-0.901,0-1.714-0.371-2.296-0.975  l-25.08-25.901L5.478,61.748c-0.58,0.58-1.378,0.937-2.261,0.937c-1.766,0-3.195-1.431-3.195-3.198c0-0.883,0.358-1.682,0.935-2.259  L29.18,28.989c0.579-0.577,1.379-0.937,2.261-0.937c0.901,0,1.715,0.373,2.295,0.973l7.348,7.592h19.7v-8.896h8.479v8.896H79.55  c0.957,0,1.818,0.423,2.405,1.089l17.229,19.673C99.677,57.943,99.975,58.683,99.975,59.486z M22.589,58.375h6.974v-6.978h-6.974  V58.375z M33.104,58.375h6.973v-6.978h-6.973V58.375z M22.589,68.361h6.974v-6.978h-6.974V68.361z M33.104,68.397h6.973v-6.979  h-6.973V68.397z" fill="currentColor"></path></svg></g><line x1="75.32600000000001" y1="41" x2="108.226" y2="41" stroke="#C30000" stroke-linecap="round"></line><path fill="#C30000" fill-rule="nonzero" d="M2.45 5.57L2.45 20.28L0 20.28L0 5.57L2.45 5.57ZM12.31 8.47Q16.01 8.47 16.01 12.14L16.01 12.14L16.01 20.28L13.58 20.28L13.58 12.34Q13.58 11.04 13.13 10.43Q12.67 9.82 11.69 9.82L11.69 9.82Q10.22 9.82 8.81 10.92L8.81 10.92L8.81 20.28L6.38 20.28L6.38 8.76L7.44 8.76L8.40 9.96Q9.26 9.29 10.31 8.88Q11.35 8.47 12.31 8.47L12.31 8.47ZM32.35 8.47Q34.20 8.47 35.10 9.43Q36 10.39 36 12.14L36 12.14L36 20.28L33.60 20.28L33.60 12.07Q33.60 10.97 33.10 10.39Q32.59 9.82 31.63 9.82L31.63 9.82Q30.19 9.82 28.97 10.87L28.97 10.87Q29.14 11.54 29.14 12.14L29.14 12.14L29.14 20.28L26.69 20.28L26.69 12.07Q26.69 9.82 24.67 9.82L24.67 9.82Q23.30 9.82 22.13 10.82L22.13 10.82L22.13 20.28L19.70 20.28L19.70 8.76L20.76 8.76L21.70 9.94Q22.46 9.29 23.42 8.88Q24.38 8.47 25.42 8.47L25.42 8.47Q27.72 8.47 28.61 9.96L28.61 9.96Q29.35 9.31 30.32 8.89Q31.30 8.47 32.35 8.47L32.35 8.47ZM46.78 8.76L49.20 8.76L49.20 20.28L47.62 20.28L46.94 18.84Q45.34 20.57 43.18 20.57L43.18 20.57Q41.30 20.57 40.42 19.60Q39.53 18.62 39.53 16.85L39.53 16.85L39.53 8.76L41.95 8.76L41.95 16.61Q41.95 19.30 44.06 19.30L44.06 19.30Q45.62 19.30 46.78 17.78L46.78 17.78L46.78 8.76ZM62.11 14.66L54.67 14.66L54.67 14.71Q54.67 17.26 55.28 18.31Q55.90 19.37 57.38 19.37L57.38 19.37Q59.83 19.37 59.95 16.85L59.95 16.85L61.94 16.94Q61.78 18.62 60.72 19.60Q59.66 20.57 57.31 20.57L57.31 20.57Q54.60 20.57 53.42 19.07Q52.25 17.57 52.25 14.52L52.25 14.52Q52.25 11.78 53.36 10.13Q54.48 8.47 57.29 8.47L57.29 8.47Q60 8.47 61.06 10.12Q62.11 11.76 62.11 14.42L62.11 14.42L62.11 14.66ZM57.24 9.67Q55.97 9.67 55.39 10.61Q54.82 11.54 54.70 13.46L54.70 13.46L59.76 13.46Q59.69 11.59 59.12 10.63Q58.56 9.67 57.24 9.67L57.24 9.67ZM70.34 8.47Q72.96 8.47 73.97 10.13Q74.98 11.78 74.98 14.52L74.98 14.52Q74.98 17.26 73.97 18.91Q72.96 20.57 70.34 20.57L70.34 20.57Q68.52 20.57 67.01 19.27L67.01 19.27L66.24 20.28L65.16 20.28L65.16 5.06L67.58 4.75L67.58 9.19Q68.95 8.47 70.34 8.47L70.34 8.47ZM69.77 19.20Q71.26 19.20 71.90 17.96Q72.55 16.73 72.55 14.52L72.55 14.52Q72.55 12.19 71.89 10.93Q71.23 9.67 69.74 9.67L69.74 9.67Q68.54 9.67 67.58 10.22L67.58 10.22L67.58 18.46Q68.50 19.20 69.77 19.20L69.77 19.20ZM80.47 4.75L80.47 20.28L78.05 20.28L78.05 5.06L80.47 4.75ZM93.41 14.66L85.97 14.66L85.97 14.71Q85.97 17.26 86.58 18.31Q87.19 19.37 88.68 19.37L88.68 19.37Q91.13 19.37 91.25 16.85L91.25 16.85L93.24 16.94Q93.07 18.62 92.02 19.60Q90.96 20.57 88.61 20.57L88.61 20.57Q85.90 20.57 84.72 19.07Q83.54 17.57 83.54 14.52L83.54 14.52Q83.54 11.78 84.66 10.13Q85.78 8.47 88.58 8.47L88.58 8.47Q91.30 8.47 92.35 10.12Q93.41 11.76 93.41 14.42L93.41 14.42L93.41 14.66ZM88.54 9.67Q87.26 9.67 86.69 10.61Q86.11 11.54 85.99 13.46L85.99 13.46L91.06 13.46Q90.98 11.59 90.42 10.63Q89.86 9.67 88.54 9.67L88.54 9.67ZM101.11 13.66Q102.89 14.14 103.69 14.88Q104.50 15.62 104.50 17.04L104.50 17.04Q104.50 18.67 103.36 19.62Q102.22 20.57 100.13 20.57L100.13 20.57Q97.87 20.57 96.77 19.64Q95.66 18.72 95.42 16.97L95.42 16.97L97.42 16.73Q97.54 17.98 98.21 18.67Q98.88 19.37 100.13 19.37L100.13 19.37Q101.14 19.37 101.78 18.82Q102.43 18.26 102.43 17.54L102.43 17.54Q102.43 16.82 101.86 16.39Q101.28 15.96 99.96 15.62L99.96 15.62L98.81 15.29Q97.27 14.88 96.46 14.09Q95.64 13.30 95.64 11.86L95.64 11.86Q95.64 10.30 96.79 9.38Q97.94 8.47 99.98 8.47L99.98 8.47Q102.12 8.47 103.15 9.37Q104.18 10.27 104.40 12.00L104.40 12.00L102.41 12.17Q102.29 10.99 101.68 10.33Q101.06 9.67 99.98 9.67L99.98 9.67Q98.86 9.67 98.28 10.13Q97.70 10.58 97.70 11.33L97.70 11.33Q97.70 12.14 98.27 12.58Q98.83 13.01 100.06 13.34L100.06 13.34L101.11 13.66ZM121.44 20.28L120.02 15.89L114.17 15.89L112.78 20.28L111.38 20.28L116.14 5.57L119.06 5.57L123.82 20.28L121.44 20.28ZM114.55 14.71L119.64 14.71L117.10 6.72L114.55 14.71ZM116.09 3.79L119.04 0L120.53 1.73L116.59 4.34L116.09 3.79ZM128.42 4.75L128.42 20.28L126.00 20.28L126.00 5.06L128.42 4.75ZM139.85 8.76L141.24 8.76L137.23 20.28L134.57 20.28L130.63 8.76L133.06 8.76L136.42 19.06L139.85 8.76ZM145.75 20.57Q144.29 20.57 143.44 19.76Q142.58 18.96 142.58 17.57L142.58 17.57Q142.58 16.08 143.65 15.23Q144.72 14.38 146.90 13.99L146.90 13.99L149.57 13.56L149.57 12.38Q149.57 9.67 147.50 9.67L147.50 9.67Q146.28 9.67 145.73 10.37Q145.18 11.06 145.10 12.50L145.10 12.50L143.09 12.29Q143.23 10.39 144.24 9.43Q145.25 8.47 147.55 8.47L147.55 8.47Q149.78 8.47 150.89 9.47Q151.99 10.46 151.99 12.48L151.99 12.48L151.99 20.28L150.46 20.28L149.71 18.60Q148.97 19.56 147.94 20.06Q146.90 20.57 145.75 20.57L145.75 20.57ZM146.62 19.30Q147.43 19.30 148.24 18.82Q149.04 18.34 149.57 17.69L149.57 17.69L149.57 14.54L147.22 15Q146.02 15.26 145.40 15.84Q144.79 16.42 144.79 17.40L144.79 17.40Q144.79 18.26 145.28 18.78Q145.78 19.30 146.62 19.30L146.62 19.30ZM157.90 10.94Q158.45 9.91 159.44 9.29Q160.44 8.66 161.83 8.66L161.83 8.66L161.83 10.44Q158.14 10.44 158.14 13.32L158.14 13.32L158.11 13.32L158.11 20.28L155.69 20.28L155.69 8.76L156.74 8.76L157.90 10.94ZM172.85 14.66L165.41 14.66L165.41 14.71Q165.41 17.26 166.02 18.31Q166.63 19.37 168.12 19.37L168.12 19.37Q170.57 19.37 170.69 16.85L170.69 16.85L172.68 16.94Q172.51 18.62 171.46 19.60Q170.40 20.57 168.05 20.57L168.05 20.57Q165.34 20.57 164.16 19.07Q162.98 17.57 162.98 14.52L162.98 14.52Q162.98 11.78 164.10 10.13Q165.22 8.47 168.02 8.47L168.02 8.47Q170.74 8.47 171.79 10.12Q172.85 11.76 172.85 14.42L172.85 14.42L172.85 14.66ZM167.98 9.67Q166.70 9.67 166.13 10.61Q165.55 11.54 165.43 13.46L165.43 13.46L170.50 13.46Q170.42 11.59 169.86 10.63Q169.30 9.67 167.98 9.67L167.98 9.67ZM177.17 19.06L183.55 19.06L183.55 20.28L174.62 20.28L174.62 18.77L180.82 9.98L174.86 9.98L174.86 8.76L183.31 8.76L183.31 10.27L177.17 19.06Z" transform="translate(0, 47)"></path></svg>