<?xml version="1.0" standalone="no"?>
<svg xmlns="http://www.w3.org/2000/svg" viewBox="0 0 298.21591654247396 102.89591654247393" width="298.21591654247396" height="102.89591654247393"><rect fill="none" stroke="#C30000" stroke-width="4" width="294.21591654247396" height="98.89591654247393" x="2" y="2"></rect><g fill="#C30000" color="#C30000" transform="translate(12 12) scale(0.7889592)"><svg width="100.0" height="100.0" x="0.0" y="0.0" viewBox="0 0 100 100"><path style="" d="M99.975,59.486c0,1.768-1.429,3.198-3.196,3.198H58.779c-0.901,0-1.714-0.371-2.296-0.975  l-25.08-25.901L5.478,61.748c-0.58,0.58-1.378,0.937-2.261,0.937c-1.766,0-3.195-1.431-3.195-3.198c0-0.883,0.358-1.682,0.935-2.259  L29.18,28.989c0.579-0.577,1.379-0.937,2.261-0.937c0.901,0,1.715,0.373,2.295,0.973l7.348,7.592h19.7v-8.896h8.479v8.896H79.55  c0.957,0,1.818,0.423,2.405,1.089l17.229,19.673C99.677,57.943,99.975,58.683,99.975,59.486z M22.589,58.375h6.974v-6.978h-6.974  V58.375z M33.104,58.375h6.973v-6.978h-6.973V58.375z M22.589,68.361h6.974v-6.978h-6.974V68.361z M33.104,68.397h6.973v-6.979  h-6.973V68.397z" fill="currentColor"></path></svg></g><path fill="#C30000" fill-rule="nonzero" d="M4.08 0.48L4.08 25L0 25L0 0.48L4.08 0.48ZM29.64 24.96L29.68 25L25.24 25L13.16 4.52L13.16 25L10.76 25L10.76 0.48L15.12 0.48L27.24 20.92L27.24 0.48L29.64 0.48L29.64 24.96ZM56.32 25L55.80 2.92L49.12 24.92L49.12 25L45.48 25L38.80 2.72L38.24 25L35.84 25L36.52 0.48L41.84 0.48L47.92 20.96L54.12 0.48L59.64 0.48L60.36 25L56.32 25ZM83.96 0.48L83.96 16.88Q83.96 19.96 82.66 21.90Q81.36 23.84 79.38 24.66Q77.40 25.48 75.20 25.48L75.20 25.48Q71.24 25.48 68.62 23.50Q66 21.52 66 16.88L66 16.88L66 0.48L70.08 0.48L70.08 16.88Q70.08 20.32 71.54 21.90Q73 23.48 75.48 23.48L75.48 23.48Q78.04 23.48 79.82 21.86Q81.60 20.24 81.60 16.88L81.60 16.88L81.60 0.48L83.96 0.48ZM94.08 22.96L104.28 22.96L104.28 25L90 25L90 0.48L103.56 0.48L103.56 2.52L94.08 2.52L94.08 11.44L102.72 11.44L102.72 13.56L94.08 13.56L94.08 22.96ZM120.44 12.28Q122.88 12.96 124 14.64Q125.12 16.32 125.12 18.44L125.12 18.44Q125.12 21.28 123.36 23.14Q121.60 25 117.36 25L117.36 25L108.80 25L108.80 0.48L116.20 0.48Q120.36 0.48 122.18 2.20Q124 3.92 124 6.76L124 6.76Q124 8.60 123.18 10.06Q122.36 11.52 120.44 12.28L120.44 12.28ZM112.88 2L112.88 11.68L115.92 11.68Q118.08 11.68 119 10.34Q119.92 9 119.92 6.80L119.92 6.80Q119.92 4.44 118.92 3.22Q117.92 2 115.92 2L115.92 2L112.88 2ZM116.96 23.48Q121.04 23.48 121.04 18.44L121.04 18.44Q121.04 16.24 120 14.72Q118.96 13.20 116.96 13.20L116.96 13.20L112.88 13.20L112.88 23.48L116.96 23.48ZM133.80 22.96L142.36 22.96L142.36 25L129.72 25L129.72 0.48L133.80 0.48L133.80 22.96ZM150.04 22.96L160.24 22.96L160.24 25L145.96 25L145.96 0.48L159.52 0.48L159.52 2.52L150.04 2.52L150.04 11.44L158.68 11.44L158.68 13.56L150.04 13.56L150.04 22.96ZM171.80 0Q175.56 0 177.60 1.78Q179.64 3.56 180.12 7.24L180.12 7.24L176.80 7.68Q176.60 4.80 175.30 3.24Q174.00 1.68 171.80 1.68L171.80 1.68Q169.44 1.68 168.18 2.82Q166.92 3.96 166.92 6.04L166.92 6.04Q166.92 7.96 167.94 8.94Q168.96 9.92 171.60 10.60L171.60 10.60L173.80 11.16Q177.36 12.16 178.84 13.80Q180.32 15.44 180.32 18.36L180.32 18.36Q180.32 21.80 178.08 23.64Q175.84 25.48 171.68 25.48L171.68 25.48Q167.72 25.48 165.62 23.70Q163.52 21.92 163.08 18.24L163.08 18.24L166.32 17.76Q166.64 20.64 168.00 22.20Q169.36 23.76 171.68 23.76L171.68 23.76Q176.88 23.76 176.88 19.36L176.88 19.36Q176.88 18.04 176.44 17.24Q176.00 16.44 174.98 15.90Q173.96 15.36 172.00 14.88L172.00 14.88L169.96 14.36Q166.40 13.44 164.98 11.78Q163.56 10.12 163.56 7.08L163.56 7.08Q163.56 3.60 165.66 1.80Q167.76 0 171.80 0L171.80 0Z" transform="translate(105.896 12) scale(1)"></path><path fill="#C30000" fill-rule="nonzero" d="M16.76 33.80L14.40 26.48L4.64 26.48L2.32 33.80L0 33.80L7.92 9.28L12.80 9.28L20.72 33.80L16.76 33.80ZM5.28 24.52L13.76 24.52L9.52 11.20L5.28 24.52ZM7.84 6.32L12.76 0L15.24 2.88L8.68 7.24L7.84 6.32ZM28.44 31.76L37 31.76L37 33.80L24.36 33.80L24.36 9.28L28.44 9.28L28.44 31.76ZM52.96 9.28L55.44 9.28L47.84 33.80L43.08 33.80L35.44 9.28L39.52 9.28L46.24 31.96L52.96 9.28ZM71.04 33.80L68.68 26.48L58.92 26.48L56.60 33.80L54.28 33.80L62.20 9.28L67.08 9.28L75.00 33.80L71.04 33.80ZM59.56 24.52L68.04 24.52L63.80 11.20L59.56 24.52ZM92.08 24.92L95.76 33.80L91.36 33.80L87.92 25.28Q87.44 24.12 86.74 23.74Q86.04 23.36 84.60 23.36L84.60 23.36L82.72 23.36L82.72 33.80L78.64 33.80L78.64 9.28L86.84 9.28Q91.20 9.28 92.96 11.42Q94.72 13.56 94.72 16.60L94.72 16.60Q94.72 18.84 93.66 20.58Q92.60 22.32 90.00 23.00L90.00 23.00Q91.44 23.52 92.08 24.92L92.08 24.92ZM82.72 21.88L86.40 21.88Q88.56 21.88 89.60 20.34Q90.64 18.80 90.64 16.60L90.64 16.60Q90.64 14.16 89.60 12.48Q88.56 10.80 86.40 10.80L86.40 10.80L82.72 10.80L82.72 21.88ZM104.76 31.76L114.96 31.76L114.96 33.80L100.68 33.80L100.68 9.28L114.24 9.28L114.24 11.32L104.76 11.32L104.76 20.24L113.40 20.24L113.40 22.36L104.76 22.36L104.76 31.76ZM121.20 31.76L134.20 31.76L134.20 33.80L117.04 33.80L117.04 31.20L129.60 11.32L117.72 11.32L117.72 9.28L133.88 9.28L133.88 11.80L121.20 31.76Z" transform="translate(105.896 45.481) scale(1.344)"></path></svg>